HIERARCHY
ROOT Hips
{
  OFFSET -347.827 93.3745 1103.5
  CHANNELS 6 Xposition Yposition Zposition Zrotation Xrotation Yrotation
  JOINT Spine
  {
    OFFSET 3.6803e-05 8.00001 5.22901e-05
    CHANNELS 6 Xposition Yposition Zposition Zrotation Xrotation Yrotation
    JOINT Spine1
    {
      OFFSET 0.000315466 7.99999 0.000135723
      CHANNELS 6 Xposition Yposition Zposition Zrotation Xrotation Yrotation
      JOINT Spine2
      {
        OFFSET -9.25326e-05 8.00001 -1.41242e-05
        CHANNELS 6 Xposition Yposition Zposition Zrotation Xrotation Yrotation
        JOINT Spine3
        {
          OFFSET 0 8 0
          CHANNELS 6 Xposition Yposition Zposition Zrotation Xrotation Yrotation
          JOINT Neck
          {
            OFFSET -0.000256571 17 -7.17338e-05
            CHANNELS 6 Xposition Yposition Zposition Zrotation Xrotation Yrotation
            JOINT Head
            {
              OFFSET -2.69379e-05 10.8 -0.000107656
              CHANNELS 6 Xposition Yposition Zposition Zrotation Xrotation Yrotation
              End Site
              {
                OFFSET 0 20.25 0
              }
            }
          }
          JOINT LeftShoulder
          {
            OFFSET 4.99964 17.0001 -0.000108946
            CHANNELS 6 Xposition Yposition Zposition Zrotation Xrotation Yrotation
            JOINT LeftShoulder2
            {
              OFFSET 6.45 0 0
              CHANNELS 6 Xposition Yposition Zposition Zrotation Xrotation Yrotation
              JOINT LeftArm
              {
                OFFSET 6.45001 0.000360669 0.00123472
                CHANNELS 6 Xposition Yposition Zposition Zrotation Xrotation Yrotation
                JOINT LeftForeArm
                {
                  OFFSET 0.000446821 -32.3995 -1.9992
                  CHANNELS 6 Xposition Yposition Zposition Zrotation Xrotation Yrotation
                  JOINT LeftHand
                  {
                    OFFSET -0.000418068 -25.6489 2.00104
                    CHANNELS 6 Xposition Yposition Zposition Zrotation Xrotation Yrotation
                    JOINT LeftHandThumb1
                    {
                      OFFSET -0.499493 -1.49938 2.65088
                      CHANNELS 6 Xposition Yposition Zposition Zrotation Xrotation Yrotation
                      JOINT LeftHandThumb2
                      {
                        OFFSET 9.97217e-05 -3.79978 3.70018
                        CHANNELS 6 Xposition Yposition Zposition Zrotation Xrotation Yrotation
                        JOINT LeftHandThumb3
                        {
                          OFFSET -0.000533556 -3.00004 2.70003
                          CHANNELS 6 Xposition Yposition Zposition Zrotation Xrotation Yrotation
                          End Site
                          {
                            OFFSET 0.0004115 -2.29922 1.79921
                          }
                        }
                      }
                    }
                    JOINT LeftHandIndex
                    {
                      OFFSET -0.00181631 -1.89949 1.60087
                      CHANNELS 6 Xposition Yposition Zposition Zrotation Xrotation Yrotation
                      JOINT LeftHandIndex1
                      {
                        OFFSET -0.000341139 -8.30013 1.90028
                        CHANNELS 6 Xposition Yposition Zposition Zrotation Xrotation Yrotation
                        JOINT LeftHandIndex2
                        {
                          OFFSET 0.000294094 -4.49974 0.000833183
                          CHANNELS 6 Xposition Yposition Zposition Zrotation Xrotation Yrotation
                          JOINT LeftHandIndex3
                          {
                            OFFSET 0.00122801 -3.40032 0.00395012
                            CHANNELS 6 Xposition Yposition Zposition Zrotation Xrotation Yrotation
                            End Site
                            {
                              OFFSET -7.98178e-05 -2.60017 -0.00039539
                            }
                          }
                        }
                      }
                    }
                    JOINT LeftHandMiddle
                    {
                      OFFSET -0.249044 -2.20031 0.399436
                      CHANNELS 6 Xposition Yposition Zposition Zrotation Xrotation Yrotation
                      JOINT LeftHandMiddle1
                      {
                        OFFSET 0.000262691 -8.30105 0.999241
                        CHANNELS 6 Xposition Yposition Zposition Zrotation Xrotation Yrotation
                        JOINT LeftHandMiddle2
                        {
                          OFFSET -0.00054824 -4.65122 -0.00123035
                          CHANNELS 6 Xposition Yposition Zposition Zrotation Xrotation Yrotation
                          JOINT LeftHandMiddle3
                          {
                            OFFSET 0.00251437 -3.30254 -0.00308617
                            CHANNELS 6 Xposition Yposition Zposition Zrotation Xrotation Yrotation
                            End Site
                            {
                              OFFSET 0.000472808 -2.7024 -0.00256007
                            }
                          }
                        }
                      }
                    }
                    JOINT LeftHandRing
                    {
                      OFFSET -0.499712 -2.15071 -0.800621
                      CHANNELS 6 Xposition Yposition Zposition Zrotation Xrotation Yrotation
                      JOINT LeftHandRing1
                      {
                        OFFSET 0.000641921 -7.74952 -0.1993
                        CHANNELS 6 Xposition Yposition Zposition Zrotation Xrotation Yrotation
                        JOINT LeftHandRing2
                        {
                          OFFSET -0.00155649 -3.79921 0.00137905
                          CHANNELS 6 Xposition Yposition Zposition Zrotation Xrotation Yrotation
                          JOINT LeftHandRing3
                          {
                            OFFSET -0.00276463 -3.39963 -0.000604948
                            CHANNELS 6 Xposition Yposition Zposition Zrotation Xrotation Yrotation
                            End Site
                            {
                              OFFSET -0.000527521 -2.59883 0.00370134
                            }
                          }
                        }
                      }
                    }
                    JOINT LeftHandPinky
                    {
                      OFFSET -0.749366 -1.75303 -1.8488
                      CHANNELS 6 Xposition Yposition Zposition Zrotation Xrotation Yrotation
                      JOINT LeftHandPinky1
                      {
                        OFFSET 0.00347063 -7.14782 -0.996803
                        CHANNELS 6 Xposition Yposition Zposition Zrotation Xrotation Yrotation
                        JOINT LeftHandPinky2
                        {
                          OFFSET 4.0479e-05 -2.99921 -0.00126442
                          CHANNELS 6 Xposition Yposition Zposition Zrotation Xrotation Yrotation
                          JOINT LeftHandPinky3
                          {
                            OFFSET 0.00318557 -2.35662 -0.000423742
                            CHANNELS 6 Xposition Yposition Zposition Zrotation Xrotation Yrotation
                            End Site
                            {
                              OFFSET -0.00161104 -2.10033 0.00126621
                            }
                          }
                        }
                      }
                    }
                  }
                }
              }
            }
          }
          JOINT RightShoulder
          {
            OFFSET -5.00031 16.9999 0.0001505
            CHANNELS 6 Xposition Yposition Zposition Zrotation Xrotation Yrotation
            JOINT RightShoulder2
            {
              OFFSET -6.45 0 0
              CHANNELS 6 Xposition Yposition Zposition Zrotation Xrotation Yrotation
              JOINT RightArm
              {
                OFFSET -6.44995 -0.000224223 -0.000670326
                CHANNELS 6 Xposition Yposition Zposition Zrotation Xrotation Yrotation
                JOINT RightForeArm
                {
                  OFFSET -0.000928328 -32.3963 -1.99565
                  CHANNELS 6 Xposition Yposition Zposition Zrotation Xrotation Yrotation
                  JOINT RightHand
                  {
                    OFFSET -0.000194103 -25.6448 2.00249
                    CHANNELS 6 Xposition Yposition Zposition Zrotation Xrotation Yrotation
                    JOINT RightHandThumb1
                    {
                      OFFSET 0.500016 -1.50002 2.65006
                      CHANNELS 6 Xposition Yposition Zposition Zrotation Xrotation Yrotation
                      JOINT RightHandThumb2
                      {
                        OFFSET 0.000102104 -3.80001 3.70003
                        CHANNELS 6 Xposition Yposition Zposition Zrotation Xrotation Yrotation
                        JOINT RightHandThumb3
                        {
                          OFFSET 9.6954e-05 -2.99992 2.70007
                          CHANNELS 6 Xposition Yposition Zposition Zrotation Xrotation Yrotation
                          End Site
                          {
                            OFFSET -0.000130724 -2.30006 1.79994
                          }
                        }
                      }
                    }
                    JOINT RightHandIndex
                    {
                      OFFSET -0.00259133 -1.90242 1.60604
                      CHANNELS 6 Xposition Yposition Zposition Zrotation Xrotation Yrotation
                      JOINT RightHandIndex1
                      {
                        OFFSET -0.00326425 -8.30004 1.89851
                        CHANNELS 6 Xposition Yposition Zposition Zrotation Xrotation Yrotation
                        JOINT RightHandIndex2
                        {
                          OFFSET 4.95874e-05 -4.49989 5.21246e-05
                          CHANNELS 6 Xposition Yposition Zposition Zrotation Xrotation Yrotation
                          JOINT RightHandIndex3
                          {
                            OFFSET -0.00298322 -3.39701 0.00155503
                            CHANNELS 6 Xposition Yposition Zposition Zrotation Xrotation Yrotation
                            End Site
                            {
                              OFFSET 0.000506671 -2.60009 0.000169832
                            }
                          }
                        }
                      }
                    }
                    JOINT RightHandMiddle
                    {
                      OFFSET 0.248008 -2.20027 0.400066
                      CHANNELS 6 Xposition Yposition Zposition Zrotation Xrotation Yrotation
                      JOINT RightHandMiddle1
                      {
                        OFFSET -0.000204965 -8.29991 0.999978
                        CHANNELS 6 Xposition Yposition Zposition Zrotation Xrotation Yrotation
                        JOINT RightHandMiddle2
                        {
                          OFFSET 0.00106273 -4.65078 0.00113934
                          CHANNELS 6 Xposition Yposition Zposition Zrotation Xrotation Yrotation
                          JOINT RightHandMiddle3
                          {
                            OFFSET -3.17447e-05 -3.30115 9.29675e-05
                            CHANNELS 6 Xposition Yposition Zposition Zrotation Xrotation Yrotation
                            End Site
                            {
                              OFFSET 0.000203304 -2.69967 0.000407355
                            }
                          }
                        }
                      }
                    }
                    JOINT RightHandRing
                    {
                      OFFSET 0.500167 -2.14975 -0.799395
                      CHANNELS 6 Xposition Yposition Zposition Zrotation Xrotation Yrotation
                      JOINT RightHandRing1
                      {
                        OFFSET 9.75759e-05 -7.75001 -0.199945
                        CHANNELS 6 Xposition Yposition Zposition Zrotation Xrotation Yrotation
                        JOINT RightHandRing2
                        {
                          OFFSET 0.000665856 -3.80068 0.000249451
                          CHANNELS 6 Xposition Yposition Zposition Zrotation Xrotation Yrotation
                          JOINT RightHandRing3
                          {
                            OFFSET -9.79043e-05 -3.40003 -0.000117215
                            CHANNELS 6 Xposition Yposition Zposition Zrotation Xrotation Yrotation
                            End Site
                            {
                              OFFSET 0.000227326 -2.60023 -0.000456641
                            }
                          }
                        }
                      }
                    }
                    JOINT RightHandPinky
                    {
                      OFFSET 0.750002 -1.74987 -1.84988
                      CHANNELS 6 Xposition Yposition Zposition Zrotation Xrotation Yrotation
                      JOINT RightHandPinky1
                      {
                        OFFSET -0.00021848 -7.14951 -0.999657
                        CHANNELS 6 Xposition Yposition Zposition Zrotation Xrotation Yrotation
                        JOINT RightHandPinky2
                        {
                          OFFSET 0.000567196 -2.99874 0.00128143
                          CHANNELS 6 Xposition Yposition Zposition Zrotation Xrotation Yrotation
                          JOINT RightHandPinky3
                          {
                            OFFSET 0.000789042 -2.35111 -0.00172974
                            CHANNELS 6 Xposition Yposition Zposition Zrotation Xrotation Yrotation
                            End Site
                            {
                              OFFSET -0.000426858 -2.09989 0.000389556
                            }
                          }
                        }
                      }
                    }
                  }
                }
              }
            }
          }
        }
      }
    }
  }
  JOINT LeftUpLeg
  {
    OFFSET 8 0 8.47455e-05
    CHANNELS 6 Xposition Yposition Zposition Zrotation Xrotation Yrotation
    JOINT LeftLeg
    {
      OFFSET -6.78826e-05 -44.9998 -1.00028
      CHANNELS 6 Xposition Yposition Zposition Zrotation Xrotation Yrotation
      JOINT LeftFoot
      {
        OFFSET 4.96692e-05 -41 -2.00002
        CHANNELS 6 Xposition Yposition Zposition Zrotation Xrotation Yrotation
        JOINT LeftToeBase
        {
          OFFSET 0.000149521 -7.5 12.4998
          CHANNELS 6 Xposition Yposition Zposition Zrotation Xrotation Yrotation
          JOINT LeftFootToe
          {
            OFFSET 0 0 4
            CHANNELS 6 Xposition Yposition Zposition Zrotation Xrotation Yrotation
            End Site
            {
              OFFSET 0 0 0
            }
          }
        }
      }
    }
  }
  JOINT RightUpLeg
  {
    OFFSET -8 0 -8.47455e-05
    CHANNELS 6 Xposition Yposition Zposition Zrotation Xrotation Yrotation
    JOINT RightLeg
    {
      OFFSET -2.6849e-05 -45.0001 -0.999932
      CHANNELS 6 Xposition Yposition Zposition Zrotation Xrotation Yrotation
      JOINT RightFoot
      {
        OFFSET -0.00044515 -41.0003 -2.00081
        CHANNELS 6 Xposition Yposition Zposition Zrotation Xrotation Yrotation
        JOINT RightToeBase
        {
          OFFSET 0.000339281 -7.5 12.5001
          CHANNELS 6 Xposition Yposition Zposition Zrotation Xrotation Yrotation
          JOINT RightFootToe
          {
            OFFSET 0 0 4
            CHANNELS 6 Xposition Yposition Zposition Zrotation Xrotation Yrotation
            End Site
            {
              OFFSET 0 0 0
            }
          }
        }
      }
    }
  }
}
MOTION
Frames:	3
Frame Time:	0.0111111
-333.07 92.4989 1103.32 1.38501 0.997798 -124.659 -2.27374e-13 8 2.27374e-13 -6.87294 11.5505 14.7415 2.27374e-13 8 1.13687e-13 -1.49974 4.26578 4.88386 0 8 -1.13687e-13 -0.704654 2.15695 2.42839 4.54747e-13 8 -1.13687e-13 -0.70468 2.15085 2.42353 0 17 5.68434e-14 0.385796 -2.54423 9.42756 2.27374e-13 10.8 -1.42109e-13 1.54942 -5.81263 22.1919 5 17 5.68434e-14 -7.17389 -4.74676 2.54333 6.45 -1.13687e-13 0 -1.90227 0.338744 -0.797326 6.45 -5.68434e-14 2.84217e-14 2.48111 -65.6191 -0.65574 -4.54747e-13 -32.4 -2 -24.8569 -51.1958 -10.2875 0 -25.65 2 -9.28046 69.6519 -33.9742 -0.5 -1.5 2.65 -122.06 -58.9032 136.424 1.13687e-13 -3.8 3.7 -0.309142 49.3812 0.0196852 -2.27374e-13 -3 2.7 -0.0811906 67.7529 0.0313989 0 -1.9 1.6 2.97264e-06 -4.7472e-06 -4.16696e-06 0 -8.3 1.9 -2.95677 14.251 0.474897 0 -4.5 0 -22.3631 -9.9443e-05 -0.00414792 0 -3.4 0 -17.3812 9.90499e-06 -0.00281199 -0.25 -2.2 0.4 2.97264e-06 -4.7472e-06 -4.16696e-06 0 -8.3 1 -2.18309 10.3624 0.274627 -2.27374e-13 -4.65 0 -16.4136 0.00219999 -0.007007 -2.27374e-13 -3.3 0 -90.0002 1.32747e-05 -2.5121e-06 -0.5 -2.15 -0.8 2.97264e-06 -4.7472e-06 -4.16696e-06 0 -7.75 -0.2 -0.760868 2.63064 0.0688158 0 -3.8 0 -7.9195 -0.0100629 -0.00159542 -2.27374e-13 -3.4 0 -89.999 0.0276806 -3.5981 -0.75 -1.75 -1.85 2.97264e-06 -4.7472e-06 -4.16696e-06 0 -7.15 -1 -0.0335906 -1.59653 0.00343493 0 -3 1.13687e-13 -19.0639 -0.00988283 -0.00239634 1.13687e-13 -2.35 -1.13687e-13 -15.2373 0.00457525 -0.00244468 -5 17 -5.68434e-14 -5.03184 -1.238 0.840419 -6.45 -1.7053e-13 -1.98952e-13 -0.767403 0.568209 -2.35839 -6.45 0 2.84217e-14 -3.89501 -34.3935 -1.6492 2.27374e-13 -32.4 -2 83.3815 -56.2003 64.1671 0 -25.65 2 6.85091 8.84842 10.5195 0.5 -1.5 2.65 133.793 88.931 20.2736 4.54747e-13 -3.8 3.7 0.114832 32.5236 0.00275161 1.13687e-13 -3 2.7 0.0128077 45.3708 -0.00988419 0 -1.9 1.6 -9.54166e-15 0 1.59028e-15 0 -8.3 1.9 9.47354 2.72907 -0.19549 2.27374e-13 -4.5 -2.27374e-13 4.07078 9.7438 1.87065 0 -3.4 -2.27374e-13 19.6568 0.00880031 -0.0193096 0.25 -2.2 0.4 -9.54166e-15 0 1.59028e-15 1.13687e-13 -8.3 1 29.3795 -4.49626 -0.0865375 -5.68434e-14 -4.65 -1.13687e-13 0.838345 14.728 11.7871 5.68434e-14 -3.3 0 62.3183 0.0326264 -0.0054998 0.5 -2.15 -0.8 -9.54166e-15 0 1.59028e-15 0 -7.75 -0.2 55.6018 -7.26669 -0.112195 1.13687e-13 -3.8 0 1.03109 21.756 19.2199 -1.13687e-13 -3.4 -2.84217e-13 73.471 -0.0431369 0.0559715 0.75 -1.75 -1.85 -9.54166e-15 0 1.59028e-15 1.13687e-13 -7.15 -1 68.5043 -7.66929 -1.24772 -1.13687e-13 -3 1.13687e-13 3.57523 19.6277 11.6702 0 -2.35 0 46.459 -0.0265086 0.0146833 8 0 0 1.17476 -11.6262 -7.35621 -2.27374e-13 -45 -1 7.79709 5.33408 0.632851 0 -41 -2 -8.73158 5.30196 -24.41 0 -7.5 12.5 -2.64766e-07 -4.60975e-07 1.26622e-09 -2.27374e-13 0 4 2.64428 -8.71594 25.4403 -8 0 0 -5.9583 3.7071 2.20872 0 -45 -1 5.28239 -1.32076 -1.29979 2.27374e-13 -41 -2 2.27302 -2.97271 -20.6123 -1.13687e-13 -7.5 12.5 1.48152e-05 0.00493936 -0.0471819 0 -4.44089e-16 4 -5.39681 1.77253 41.7613 
-332.824 92.4721 1103.25 1.42128 1.18307 -124.631 2.27374e-13 8 1.7053e-13 -6.35385 11.4054 14.6705 0 8 1.13687e-13 -1.41352 4.27124 4.85749 -2.27374e-13 8 -1.7053e-13 -0.661653 2.15697 2.41597 0 8 -5.68434e-14 -0.660121 2.15171 2.41159 -2.27374e-13 17 1.42109e-13 0.305275 -2.46584 9.45042 2.27374e-13 10.8 -1.13687e-13 1.34307 -5.651 22.2367 5 17 1.98952e-13 -6.84909 -4.55782 2.58462 6.45 -5.68434e-14 -5.68434e-14 -1.90871 0.317996 -0.907169 6.45 0 -5.68434e-14 2.45431 -66.1872 -0.559635 0 -32.4 -2 -23.897 -50.4906 -9.10368 2.27374e-13 -25.65 2 -9.26286 69.2756 -33.8446 -0.5 -1.5 2.65 -121.455 -58.9537 136.104 1.13687e-13 -3.8 3.7 -0.231558 49.4519 0.0508318 0 -3 2.7 -0.1534 67.9249 0.228069 -1.13687e-13 -1.9 1.6 2.97264e-06 -4.7472e-06 -4.16696e-06 0 -8.3 1.9 -2.9547 14.2467 0.47505 -1.13687e-13 -4.5 0 -23.1855 -9.9443e-05 -0.00414792 0 -3.4 -3.41061e-13 -17.914 9.90499e-06 -0.00281199 -0.25 -2.2 0.4 2.97264e-06 -4.7472e-06 -4.16696e-06 0 -8.3 1 -2.18306 10.382 0.274644 -1.13687e-13 -4.65 1.13687e-13 -17.0961 0.00219999 -0.007007 0 -3.3 0 -90.0002 1.32747e-05 -2.5121e-06 -0.5 -2.15 -0.8 2.97264e-06 -4.7472e-06 -4.16696e-06 0 -7.75 -0.2 -0.759457 2.68845 0.068819 0 -3.8 0 -8.71919 -0.00851376 -0.00139112 0 -3.4 0 -89.999 0.0276806 -3.5981 -0.75 -1.75 -1.85 2.97264e-06 -4.7472e-06 -4.16696e-06 -1.13687e-13 -7.15 -1 -0.0312846 -1.5214 0.00539271 -1.13687e-13 -3 1.13687e-13 -19.67 -0.00868511 -0.00282636 0 -2.35 -1.13687e-13 -15.6383 0.00457525 -0.00268424 -5 17 8.52651e-14 -4.97839 -1.26999 0.846327 -6.45 -1.13687e-13 -1.42109e-13 -0.810778 0.593826 -2.42939 -6.45 -5.68434e-14 -2.84217e-14 -3.04516 -35.1233 -1.02356 0 -32.4 -2 81.3714 -55.6982 60.9757 0 -25.65 2 7.99354 8.4055 9.27928 0.5 -1.5 2.65 -141.803 87.3121 -65.5348 3.41061e-13 -3.8 3.7 0.114832 32.5236 0.00275161 0 -3 2.7 0.0128077 45.3708 -0.00988419 0 -1.9 1.6 0 0 -1.59028e-15 -1.13687e-13 -8.3 1.9 9.88595 3.20353 -0.247266 1.13687e-13 -4.5 -2.27374e-13 4.06427 9.7174 1.85066 0 -3.4 -3.41061e-13 19.5986 0.0110316 -0.0256331 0.25 -2.2 0.4 0 0 -1.59028e-15 0 -8.3 1 29.6057 -4.49961 -0.0781652 0 -4.65 -8.52651e-14 0.825998 14.7556 11.8425 1.13687e-13 -3.3 1.13687e-13 62.7129 0.00462253 -0.000208738 0.5 -2.15 -0.8 0 0 -1.59028e-15 0 -7.75 -0.2 55.8956 -7.30707 -0.0990724 1.7053e-13 -3.8 0 1.05612 21.7494 19.1519 -1.13687e-13 -3.4 -2.84217e-13 73.1423 -0.0462206 0.0605798 0.75 -1.75 -1.85 0 0 -1.59028e-15 2.27374e-13 -7.15 -1 68.6656 -7.60433 -1.30405 0 -3 1.13687e-13 3.60246 19.5763 11.5688 1.13687e-13 -2.35 0 46.2077 -0.0308987 0.0146833 8 0 -5.68434e-14 1.38497 -11.7088 -7.3053 0 -45 -1 7.99111 5.44399 0.591021 0 -41 -2 -8.97721 5.30518 -24.3877 0 -7.5 12.5 -2.64766e-07 -4.60975e-07 1.26622e-09 -2.27374e-13 0 4 2.7359 -8.67969 25.3145 -8 0 1.7053e-13 -5.53302 3.66238 2.22523 0 -45 -1 5.05438 -1.27082 -1.16455 -2.27374e-13 -41 -2 2.22022 -2.97242 -20.8169 -1.13687e-13 -7.5 12.5 1.27004e-05 0.00237128 -0.0471819 -1.13687e-13 -4.44089e-16 4 -5.18014 1.67316 41.776 
-332.575 92.4551 1103.19 1.46091 1.35568 -124.62 -2.27374e-13 8 1.13687e-13 -5.81831 11.267 14.6003 2.27374e-13 8 1.13687e-13 -1.32337 4.27712 4.83407 0 8 -5.68434e-14 -0.61667 2.15698 2.40498 0 8 0 -0.61501 2.15261 2.39928 -2.27374e-13 17 1.42109e-13 0.212382 -2.39328 9.48531 2.27374e-13 10.8 -1.7053e-13 1.11036 -5.50636 22.31 5 17 1.13687e-13 -6.57284 -4.37149 2.62267 6.45 -1.13687e-13 0 -1.91785 0.307086 -1.00403 6.45 0 -2.84217e-14 2.49541 -66.7239 -0.385923 0 -32.4 -2 -22.8201 -49.7899 -7.94057 2.27374e-13 -25.65 2 -9.17191 68.9064 -33.97 -0.5 -1.5 2.65 -120.114 -58.7345 139.351 1.13687e-13 -3.8 3.7 0.391256 50.193 0.366504 0 -3 2.7 -1.02084 68.8114 2.21813 -1.13687e-13 -1.9 1.6 2.97264e-06 -4.7472e-06 -4.16696e-06 0 -8.3 1.9 -2.95625 14.2494 0.476722 0 -4.5 1.13687e-13 -23.6436 -9.9443e-05 -0.00414792 0 -3.4 -1.13687e-13 -18.208 9.90499e-06 -0.00281199 -0.25 -2.2 0.4 2.97264e-06 -4.7472e-06 -4.16696e-06 0 -8.3 1 -2.18516 10.415 0.274673 -2.27374e-13 -4.65 1.13687e-13 -17.6956 0.00219999 -0.007007 -1.13687e-13 -3.3 1.13687e-13 -90.0002 1.32747e-05 -2.5121e-06 -0.5 -2.15 -0.8 2.97264e-06 -4.7472e-06 -4.16696e-06 0 -7.75 -0.2 -0.758411 2.76639 0.0688235 0 -3.8 0 -9.5733 -0.00276248 0.000280767 0 -3.4 1.13687e-13 -89.999 0.0276806 -3.5981 -0.75 -1.75 -1.85 2.97264e-06 -4.7472e-06 -4.16696e-06 1.13687e-13 -7.15 -1 -0.0262062 -1.4273 0.0078104 -1.13687e-13 -3 0 -20.282 -0.00507528 -0.00381664 2.27374e-13 -2.35 0 -16.048 0.00457525 -0.00317251 -5 17 -5.68434e-14 -4.94193 -1.28407 0.908871 -6.45 -1.13687e-13 -1.13687e-13 -0.849241 0.620586 -2.50559 -6.45 0 5.68434e-14 -2.24259 -35.8449 -0.465592 0 -32.4 -2 79.6187 -55.1847 57.9939 1.13687e-13 -25.65 2 8.97237 8.02361 8.02943 0.5 -1.5 2.65 -130.704 84.585 -77.9375 0 -3.8 3.7 0.114832 32.5236 0.00275161 0 -3 2.7 0.0128077 45.3708 -0.00988419 1.13687e-13 -1.9 1.6 3.18055e-15 3.97569e-16 1.59028e-15 2.27374e-13 -8.3 1.9 10.2668 3.70779 -0.316208 0 -4.5 -2.27374e-13 4.03381 9.63156 1.82486 0 -3.4 -2.27374e-13 19.4695 0.0078151 -0.0191161 0.25 -2.2 0.4 3.18055e-15 3.97569e-16 1.59028e-15 0 -8.3 1 29.846 -4.49521 -0.0768047 -1.13687e-13 -4.65 -1.13687e-13 0.824169 14.7692 11.8542 1.13687e-13 -3.3 0 62.8461 -0.0168647 0.00441437 0.5 -2.15 -0.8 3.18055e-15 3.97569e-16 1.59028e-15 0 -7.75 -0.2 56.1723 -7.342 -0.0934824 5.68434e-14 -3.8 2.84217e-14 1.08144 21.7395 19.0808 -1.13687e-13 -3.4 -2.84217e-13 72.7125 -0.0292142 0.0384485 0.75 -1.75 -1.85 3.18055e-15 3.97569e-16 1.59028e-15 0 -7.15 -1 68.8276 -7.54404 -1.36485 1.13687e-13 -3 8.52651e-14 3.63419 19.5108 11.4435 -1.13687e-13 -2.35 0 45.9012 -0.0386779 0.0146833 8 -1.42109e-14 -1.7053e-13 1.64124 -11.7625 -7.27554 0 -45 -1 8.07531 5.46298 0.567989 0 -41 -2 -9.16083 5.38135 -24.3581 0 -7.5 12.5 -2.64766e-07 -4.60975e-07 1.26622e-09 0 1.77636e-15 4 2.83081 -8.66348 25.2161 -8 -1.42109e-14 1.7053e-13 -5.1404 3.60922 2.22691 2.27374e-13 -45 -1 4.86695 -1.23293 -1.04309 0 -41 -2 2.15738 -2.93961 -20.9744 0 -7.5 12.5 4.05178e-06 -0.0081313 -0.0471819 -1.13687e-13 0 4 -4.96651 1.60197 41.7915 
